<?xml version="1.0" encoding="utf-8"?>
<!-- Generator: Adobe Illustrator 17.1.0, SVG Export Plug-In . SVG Version: 6.00 Build 0)  -->
<!DOCTYPE svg PUBLIC "-//W3C//DTD SVG 1.1//EN" "http://www.w3.org/Graphics/SVG/1.1/DTD/svg11.dtd">
<svg version="1.1" id="Images" xmlns="http://www.w3.org/2000/svg" xmlns:xlink="http://www.w3.org/1999/xlink" x="0px" y="0px"
	 viewBox="5.7 4.7 420 230.7" enable-background="new 5.7 4.7 420 230.7" xml:space="preserve">
<rect x="13.7" y="13.1" fill="#D3DFE2" width="190" height="144.9"/>
<rect x="227" y="13.1" fill="#D3DFE2" width="190" height="144.9"/>
<rect x="227" y="180.2" fill="#D3DFE2" width="190" height="144.9"/>
<rect x="13.7" y="180.2" fill="#D3DFE2" width="190" height="144.9"/>
<rect x="29.3" y="30.2" fill="#6A9DAA" width="159.3" height="83.3"/>
<rect x="242.7" y="30.2" fill="#6A9DAA" width="159.3" height="83.3"/>
<g>
	<rect x="29.6" y="125" fill="#5E8291" width="158.1" height="3.9"/>
	<rect x="29.6" y="138.5" fill="#5E8291" width="54.4" height="3.9"/>
</g>
<g>
	<g>
		<path fill="#FFFFFF" d="M126.2,56.3c-0.6-0.6-1.4-1-2.3-1H91.4c-0.9,0-1.7,0.3-2.3,1c-0.6,0.6-1,1.4-1,2.3v24.7
			c0,0.9,0.3,1.7,1,2.3c0.6,0.6,1.4,1,2.3,1h32.6c0.9,0,1.7-0.3,2.3-1c0.6-0.6,1-1.4,1-2.3V58.6C127.2,57.7,126.9,56.9,126.2,56.3z
			 M124.6,83.3c0,0.2-0.1,0.3-0.2,0.5c-0.1,0.1-0.3,0.2-0.5,0.2H91.4c-0.2,0-0.3-0.1-0.5-0.2c-0.1-0.1-0.2-0.3-0.2-0.5V58.6
			c0-0.2,0.1-0.3,0.2-0.5c0.1-0.1,0.3-0.2,0.5-0.2h32.6c0.2,0,0.3,0.1,0.5,0.2c0.1,0.1,0.2,0.3,0.2,0.5V83.3L124.6,83.3z"/>
		<path fill="#FFFFFF" d="M97.2,68.3c1.1,0,2-0.4,2.8-1.1c0.8-0.8,1.1-1.7,1.1-2.8c0-1.1-0.4-2-1.1-2.8c-0.8-0.8-1.7-1.1-2.8-1.1
			c-1.1,0-2,0.4-2.8,1.1c-0.8,0.8-1.1,1.7-1.1,2.8c0,1.1,0.4,2,1.1,2.8C95.2,68,96.2,68.3,97.2,68.3z"/>
		<polygon fill="#FFFFFF" points="103.1,74.2 99.9,70.9 93.3,77.5 93.3,81.4 122,81.4 122,72.3 113.5,63.8 		"/>
	</g>
</g>
<g>
	<g>
		<path fill="#FFFFFF" d="M341.6,56.3c-0.6-0.6-1.4-1-2.3-1h-32.6c-0.9,0-1.7,0.3-2.3,1c-0.6,0.6-1,1.4-1,2.3v24.7
			c0,0.9,0.3,1.7,1,2.3c0.6,0.6,1.4,1,2.3,1h32.6c0.9,0,1.7-0.3,2.3-1c0.6-0.6,1-1.4,1-2.3V58.6C342.5,57.7,342.2,56.9,341.6,56.3z
			 M339.9,83.3c0,0.2-0.1,0.3-0.2,0.5c-0.1,0.1-0.3,0.2-0.5,0.2h-32.6c-0.2,0-0.3-0.1-0.5-0.2c-0.1-0.1-0.2-0.3-0.2-0.5V58.6
			c0-0.2,0.1-0.3,0.2-0.5c0.1-0.1,0.3-0.2,0.5-0.2h32.6c0.2,0,0.3,0.1,0.5,0.2c0.1,0.1,0.2,0.3,0.2,0.5V83.3L339.9,83.3z"/>
		<path fill="#FFFFFF" d="M312.6,68.3c1.1,0,2-0.4,2.8-1.1c0.8-0.8,1.1-1.7,1.1-2.8c0-1.1-0.4-2-1.1-2.8c-0.8-0.8-1.7-1.1-2.8-1.1
			c-1.1,0-2,0.4-2.8,1.1c-0.8,0.8-1.1,1.7-1.1,2.8c0,1.1,0.4,2,1.1,2.8C310.6,68,311.5,68.3,312.6,68.3z"/>
		<polygon fill="#FFFFFF" points="318.4,74.2 315.2,70.9 308.7,77.5 308.7,81.4 337.3,81.4 337.3,72.3 328.9,63.8 		"/>
	</g>
</g>
<rect x="29.3" y="199.3" fill="#6A9DAA" width="159.3" height="79.5"/>
<rect x="242.3" y="199.3" fill="#6A9DAA" width="159.3" height="79.5"/>
<g>
	<rect x="242.6" y="125.2" fill="#5E8291" width="158.1" height="3.9"/>
	<rect x="242.6" y="138.7" fill="#5E8291" width="54.4" height="3.9"/>
</g>
</svg>
