<?xml version="1.0" encoding="utf-8"?>
<!-- Generator: Adobe Illustrator 17.1.0, SVG Export Plug-In . SVG Version: 6.00 Build 0)  -->
<!DOCTYPE svg PUBLIC "-//W3C//DTD SVG 1.1//EN" "http://www.w3.org/Graphics/SVG/1.1/DTD/svg11.dtd">
<svg version="1.1" id="Images" xmlns="http://www.w3.org/2000/svg" xmlns:xlink="http://www.w3.org/1999/xlink" x="0px" y="0px"
	 viewBox="5.7 4.7 420 230.7" enable-background="new 5.7 4.7 420 230.7" xml:space="preserve">
<rect x="13.7" y="13.1" fill="#D8E1E5" width="190" height="144.9"/>
<rect x="227" y="13.1" fill="#D8E1E5" width="190" height="144.9"/>
<rect x="227" y="180.2" fill="#D8E1E5" width="190" height="144.9"/>
<rect x="13.7" y="180.2" fill="#D8E1E5" width="190" height="144.9"/>
<rect x="13.7" y="13.1" fill="#66A4BF" width="190" height="100.4"/>
<rect x="227" y="13.1" fill="#66A4BF" width="190" height="100.4"/>
<g>
	<rect x="29.6" y="127" fill="#5E8291" width="158.1" height="3.9"/>
	<rect x="29.6" y="140.5" fill="#5E8291" width="54.4" height="3.9"/>
</g>
<g>
	<g>
		<path fill="#FFFFFF" d="M127.2,50.3c-0.6-0.6-1.4-1-2.3-1H92.4c-0.9,0-1.7,0.3-2.3,1c-0.6,0.6-1,1.4-1,2.3v24.7
			c0,0.9,0.3,1.7,1,2.3c0.6,0.6,1.4,1,2.3,1h32.6c0.9,0,1.7-0.3,2.3-1c0.6-0.6,1-1.4,1-2.3V52.6C128.2,51.7,127.9,50.9,127.2,50.3z
			 M125.6,77.3c0,0.2-0.1,0.3-0.2,0.5c-0.1,0.1-0.3,0.2-0.5,0.2H92.4c-0.2,0-0.3-0.1-0.5-0.2c-0.1-0.1-0.2-0.3-0.2-0.5V52.6
			c0-0.2,0.1-0.3,0.2-0.5c0.1-0.1,0.3-0.2,0.5-0.2h32.6c0.2,0,0.3,0.1,0.5,0.2c0.1,0.1,0.2,0.3,0.2,0.5V77.3L125.6,77.3z"/>
		<path fill="#FFFFFF" d="M98.2,62.3c1.1,0,2-0.4,2.8-1.1c0.8-0.8,1.1-1.7,1.1-2.8c0-1.1-0.4-2-1.1-2.8c-0.8-0.8-1.7-1.1-2.8-1.1
			c-1.1,0-2,0.4-2.8,1.1c-0.8,0.8-1.1,1.7-1.1,2.8c0,1.1,0.4,2,1.1,2.8C96.2,62,97.2,62.3,98.2,62.3z"/>
		<polygon fill="#FFFFFF" points="104.1,68.2 100.9,64.9 94.3,71.5 94.3,75.4 123,75.4 123,66.3 114.5,57.8 		"/>
	</g>
</g>
<g>
	<g>
		<path fill="#FFFFFF" d="M341.6,50.3c-0.6-0.6-1.4-1-2.3-1h-32.6c-0.9,0-1.7,0.3-2.3,1c-0.6,0.6-1,1.4-1,2.3v24.7
			c0,0.9,0.3,1.7,1,2.3c0.6,0.6,1.4,1,2.3,1h32.6c0.9,0,1.7-0.3,2.3-1c0.6-0.6,1-1.4,1-2.3V52.6C342.5,51.7,342.2,50.9,341.6,50.3z
			 M339.9,77.3c0,0.2-0.1,0.3-0.2,0.5c-0.1,0.1-0.3,0.2-0.5,0.2h-32.6c-0.2,0-0.3-0.1-0.5-0.2c-0.1-0.1-0.2-0.3-0.2-0.5V52.6
			c0-0.2,0.1-0.3,0.2-0.5c0.1-0.1,0.3-0.2,0.5-0.2h32.6c0.2,0,0.3,0.1,0.5,0.2c0.1,0.1,0.2,0.3,0.2,0.5V77.3L339.9,77.3z"/>
		<path fill="#FFFFFF" d="M312.6,62.3c1.1,0,2-0.4,2.8-1.1c0.8-0.8,1.1-1.7,1.1-2.8c0-1.1-0.4-2-1.1-2.8c-0.8-0.8-1.7-1.1-2.8-1.1
			c-1.1,0-2,0.4-2.8,1.1c-0.8,0.8-1.1,1.7-1.1,2.8c0,1.1,0.4,2,1.1,2.8C310.6,62,311.5,62.3,312.6,62.3z"/>
		<polygon fill="#FFFFFF" points="318.4,68.2 315.2,64.9 308.7,71.5 308.7,75.4 337.3,75.4 337.3,66.3 328.9,57.8 		"/>
	</g>
</g>
<rect x="13.7" y="180.2" fill="#66A4BF" width="190" height="98.6"/>
<rect x="227" y="180.2" fill="#66A4BF" width="190" height="98.6"/>
<g>
	<rect x="242.6" y="127.2" fill="#5E8291" width="158.1" height="3.9"/>
	<rect x="242.6" y="140.7" fill="#5E8291" width="54.4" height="3.9"/>
</g>
</svg>
