<?xml version="1.0" encoding="utf-8"?>
<!-- Generator: Adobe Illustrator 17.1.0, SVG Export Plug-In . SVG Version: 6.00 Build 0)  -->
<!DOCTYPE svg PUBLIC "-//W3C//DTD SVG 1.1//EN" "http://www.w3.org/Graphics/SVG/1.1/DTD/svg11.dtd">
<svg version="1.1" xmlns="http://www.w3.org/2000/svg" xmlns:xlink="http://www.w3.org/1999/xlink" x="0px" y="0px"
	 viewBox="5.7 4.7 420 230.7" enable-background="new 5.7 4.7 420 230.7" xml:space="preserve">
<g id="Layer_1" xmlns:sketch="http://www.bohemiancoding.com/sketch/ns">
	<rect x="15.8" y="166.2" fill="#E5E5E5" width="125.9" height="76.6"/>
	<rect x="15.7" y="17.1" fill="#E5E5E5" width="125.9" height="136.1"/>
	<rect x="289.7" y="17.2" fill="#E5E5E5" width="125.9" height="97.3"/>
	<title>Responsive DesignI</title>
	<desc>Created with Sketch.</desc>
	<g>
		<rect x="152.5" y="16.9" fill="#E5E5E5" width="125.9" height="181.1"/>
		<g>
			
				<rect id="Rectangle-686-Copy-10_2_" x="161.7" y="27.3" sketch:type="MSShapeGroup" fill="#CC9BC3" width="107.2" height="125.7">
			</rect>
		</g>
		<rect x="161.8" y="167.1" fill="#AAAAAA" width="107.2" height="3.9"/>
		<rect x="161.8" y="181.6" fill="#AAAAAA" width="89.4" height="3.9"/>
	</g>
	<g>
		<rect x="289.7" y="128" fill="#E5E5E5" width="125.9" height="117.9"/>
		<g>
			
				<rect id="Rectangle-686-Copy-10_3_" x="298.9" y="139.2" sketch:type="MSShapeGroup" fill="#CEC47C" width="107.2" height="68.8">
			</rect>
		</g>
		<rect x="299" y="219.7" fill="#AAAAAA" width="107.2" height="3.9"/>
	</g>
	<g>
		<g>
			<rect id="Rectangle-686-Copy-10_4_" x="299" y="27.3" sketch:type="MSShapeGroup" fill="#94A879" width="107.2" height="60">
			</rect>
		</g>
		<rect x="299" y="98.8" fill="#AAAAAA" width="107.2" height="3.9"/>
	</g>
	<g>
		<rect id="Rectangle-686-Copy-10_5_" x="25" y="27.4" sketch:type="MSShapeGroup" fill="#678AA0" width="107.2" height="84.8">
		</rect>
	</g>
	<rect x="25.9" y="125" fill="#AAAAAA" width="107.2" height="3.9"/>
	<rect x="25.9" y="137.5" fill="#AAAAAA" width="89.4" height="3.9"/>
	<g>
		<g>
			<rect id="Rectangle-686-Copy-10_6_" x="25.9" y="177.3" sketch:type="MSShapeGroup" fill="#8BC6C6" width="107.2" height="65.5">
			</rect>
		</g>
	</g>
	<g>
		<rect x="153" y="211.3" fill="#E5E5E5" width="125.9" height="58.6"/>
		<g>
			<rect id="Rectangle-686-Copy-10_7_" x="162.8" y="220" sketch:type="MSShapeGroup" fill="#E5BC9A" width="107.2" height="49.9">
			</rect>
		</g>
	</g>
	<g>
		<g>
			<path fill="#FFFFFF" d="M99.3,53.4c-0.7-0.7-1.6-1.1-2.6-1.1H60.2c-1,0-1.9,0.4-2.6,1.1c-0.7,0.7-1.1,1.6-1.1,2.6v27.8
				c0,1,0.4,1.9,1.1,2.6c0.7,0.7,1.6,1.1,2.6,1.1h36.5c1,0,1.9-0.4,2.6-1.1c0.7-0.7,1.1-1.6,1.1-2.6V56C100.4,55,100,54.1,99.3,53.4
				z M97.5,83.7c0,0.2-0.1,0.4-0.2,0.5c-0.1,0.1-0.3,0.2-0.5,0.2H60.2c-0.2,0-0.4-0.1-0.5-0.2c-0.1-0.1-0.2-0.3-0.2-0.5V56
				c0-0.2,0.1-0.4,0.2-0.5c0.1-0.1,0.3-0.2,0.5-0.2h36.5c0.2,0,0.4,0.1,0.5,0.2c0.1,0.1,0.2,0.3,0.2,0.5V83.7L97.5,83.7z"/>
			<path fill="#FFFFFF" d="M66.8,66.9c1.2,0,2.3-0.4,3.1-1.3c0.9-0.9,1.3-1.9,1.3-3.1c0-1.2-0.4-2.3-1.3-3.1
				c-0.9-0.9-1.9-1.3-3.1-1.3c-1.2,0-2.3,0.4-3.1,1.3c-0.9,0.9-1.3,1.9-1.3,3.1c0,1.2,0.4,2.3,1.3,3.1
				C64.5,66.5,65.6,66.9,66.8,66.9z"/>
			<polygon fill="#FFFFFF" points="73.4,73.5 69.7,69.9 62.4,77.2 62.4,81.6 94.6,81.6 94.6,71.3 85,61.8 			"/>
		</g>
	</g>
	<g>
		<g>
			<path fill="#FFFFFF" d="M237.9,70.4c-0.8-0.8-1.7-1.2-2.8-1.2h-40.2c-1.1,0-2.1,0.4-2.8,1.2c-0.8,0.8-1.2,1.7-1.2,2.8v30.6
				c0,1.1,0.4,2.1,1.2,2.8c0.8,0.8,1.7,1.2,2.8,1.2H235c1.1,0,2.1-0.4,2.8-1.2c0.8-0.8,1.2-1.7,1.2-2.8V73.3
				C239,72.2,238.7,71.2,237.9,70.4z M235.8,103.8c0,0.2-0.1,0.4-0.2,0.6c-0.2,0.2-0.3,0.2-0.6,0.2h-40.2c-0.2,0-0.4-0.1-0.6-0.2
				c-0.2-0.2-0.2-0.3-0.2-0.6V73.3c0-0.2,0.1-0.4,0.2-0.6c0.2-0.2,0.3-0.2,0.6-0.2H235c0.2,0,0.4,0.1,0.6,0.2
				c0.2,0.2,0.2,0.3,0.2,0.6V103.8L235.8,103.8z"/>
			<path fill="#FFFFFF" d="M202.1,85.3c1.3,0,2.5-0.5,3.4-1.4c0.9-0.9,1.4-2.1,1.4-3.4c0-1.3-0.5-2.5-1.4-3.4
				c-0.9-0.9-2.1-1.4-3.4-1.4c-1.3,0-2.5,0.5-3.4,1.4c-0.9,0.9-1.4,2.1-1.4,3.4c0,1.3,0.5,2.5,1.4,3.4
				C199.6,84.9,200.7,85.3,202.1,85.3z"/>
			<polygon fill="#FFFFFF" points="209.3,92.6 205.3,88.6 197.2,96.6 197.2,101.4 232.6,101.4 232.6,90.2 222.2,79.7 			"/>
		</g>
	</g>
	<g>
		<g>
			<path fill="#FFFFFF" d="M370,44c-0.6-0.6-1.3-0.9-2.1-0.9h-29.6c-0.8,0-1.5,0.3-2.1,0.9c-0.6,0.6-0.9,1.3-0.9,2.1v22.5
				c0,0.8,0.3,1.5,0.9,2.1c0.6,0.6,1.3,0.9,2.1,0.9h29.6c0.8,0,1.5-0.3,2.1-0.9c0.6-0.6,0.9-1.3,0.9-2.1V46.1
				C370.9,45.3,370.6,44.6,370,44z M368.5,68.6c0,0.2-0.1,0.3-0.2,0.4c-0.1,0.1-0.3,0.2-0.4,0.2h-29.6c-0.2,0-0.3-0.1-0.4-0.2
				c-0.1-0.1-0.2-0.3-0.2-0.4V46.1c0-0.2,0.1-0.3,0.2-0.4c0.1-0.1,0.3-0.2,0.4-0.2h29.6c0.2,0,0.3,0.1,0.4,0.2
				c0.1,0.1,0.2,0.3,0.2,0.4V68.6L368.5,68.6z"/>
			<path fill="#FFFFFF" d="M343.7,55c1,0,1.8-0.3,2.5-1c0.7-0.7,1-1.5,1-2.5c0-1-0.3-1.8-1-2.5c-0.7-0.7-1.5-1-2.5-1
				c-1,0-1.8,0.3-2.5,1c-0.7,0.7-1,1.5-1,2.5c0,1,0.3,1.8,1,2.5C341.8,54.6,342.7,55,343.7,55z"/>
			<polygon fill="#FFFFFF" points="349,60.3 346,57.4 340.1,63.3 340.1,66.8 366.2,66.8 366.2,58.5 358.5,50.8 			"/>
		</g>
	</g>
	<g>
		<g>
			<path fill="#FFFFFF" d="M371.9,158.8c-0.6-0.6-1.4-1-2.3-1h-32.9c-0.9,0-1.7,0.3-2.3,1c-0.6,0.6-1,1.4-1,2.3v25
				c0,0.9,0.3,1.7,1,2.3c0.6,0.6,1.4,1,2.3,1h32.9c0.9,0,1.7-0.3,2.3-1c0.6-0.6,1-1.4,1-2.3v-25
				C372.9,160.2,372.5,159.4,371.9,158.8z M370.2,186.1c0,0.2-0.1,0.3-0.2,0.5c-0.1,0.1-0.3,0.2-0.5,0.2h-32.9
				c-0.2,0-0.3-0.1-0.5-0.2c-0.1-0.1-0.2-0.3-0.2-0.5v-25c0-0.2,0.1-0.3,0.2-0.5c0.1-0.1,0.3-0.2,0.5-0.2h32.9
				c0.2,0,0.3,0.1,0.5,0.2c0.1,0.1,0.2,0.3,0.2,0.5V186.1L370.2,186.1z"/>
			<path fill="#FFFFFF" d="M342.6,171c1.1,0,2-0.4,2.8-1.2c0.8-0.8,1.2-1.7,1.2-2.8c0-1.1-0.4-2-1.2-2.8c-0.8-0.8-1.7-1.2-2.8-1.2
				c-1.1,0-2,0.4-2.8,1.2c-0.8,0.8-1.2,1.7-1.2,2.8c0,1.1,0.4,2,1.2,2.8C340.6,170.6,341.5,171,342.6,171z"/>
			<polygon fill="#FFFFFF" points="348.5,176.9 345.2,173.6 338.7,180.2 338.7,184.1 367.6,184.1 367.6,174.9 359.1,166.4 			"/>
		</g>
	</g>
	<g>
		<g>
			<path fill="#FFFFFF" d="M98.5,204.2c-0.7-0.7-1.6-1.1-2.6-1.1H59.3c-1,0-1.9,0.4-2.6,1.1c-0.7,0.7-1.1,1.6-1.1,2.6v27.8
				c0,1,0.4,1.9,1.1,2.6c0.7,0.7,1.6,1.1,2.6,1.1h36.5c1,0,1.9-0.4,2.6-1.1c0.7-0.7,1.1-1.6,1.1-2.6v-27.8
				C99.5,205.7,99.2,204.9,98.5,204.2z M96.6,234.5c0,0.2-0.1,0.4-0.2,0.5c-0.1,0.1-0.3,0.2-0.5,0.2H59.3c-0.2,0-0.4-0.1-0.5-0.2
				c-0.1-0.1-0.2-0.3-0.2-0.5v-27.8c0-0.2,0.1-0.4,0.2-0.5c0.1-0.1,0.3-0.2,0.5-0.2h36.5c0.2,0,0.4,0.1,0.5,0.2
				c0.1,0.1,0.2,0.3,0.2,0.5V234.5L96.6,234.5z"/>
			<path fill="#FFFFFF" d="M65.9,217.7c1.2,0,2.3-0.4,3.1-1.3c0.9-0.9,1.3-1.9,1.3-3.1c0-1.2-0.4-2.3-1.3-3.1
				c-0.9-0.9-1.9-1.3-3.1-1.3c-1.2,0-2.3,0.4-3.1,1.3c-0.9,0.9-1.3,1.9-1.3,3.1c0,1.2,0.4,2.3,1.3,3.1
				C63.7,217.3,64.7,217.7,65.9,217.7z"/>
			<polygon fill="#FFFFFF" points="72.5,224.3 68.8,220.6 61.5,227.9 61.5,232.3 93.7,232.3 93.7,222.1 84.2,212.6 			"/>
		</g>
	</g>
	<g display="none">
		<g display="inline">
			<path fill="#FFFFFF" d="M196.2,60.9c-0.2-0.2-0.5-0.3-0.7-0.3c-0.3-0.1-0.6-0.1-0.9-0.1c-0.1,0-0.2,0-0.4,0c-0.1,0-0.3,0-0.5,0
				v4.1c0.1,0,0.3,0,0.4,0c0.1,0,0.3,0,0.4,0c0.3,0,0.6,0,0.9-0.1c0.3-0.1,0.5-0.2,0.7-0.3c0.2-0.2,0.4-0.4,0.5-0.6
				c0.1-0.3,0.2-0.6,0.2-1c0-0.4-0.1-0.7-0.2-1C196.6,61.2,196.4,61,196.2,60.9z"/>
			<path fill="#FFFFFF" d="M204.9,63.5c-0.6,0-1.1,0.2-1.4,0.7c-0.3,0.4-0.4,1.1-0.4,1.9c0,0.8,0.1,1.5,0.4,1.9
				c0.3,0.4,0.7,0.7,1.4,0.7c0.6,0,1.1-0.2,1.4-0.7c0.3-0.4,0.4-1.1,0.4-1.9c0-0.8-0.1-1.5-0.4-1.9C206,63.7,205.6,63.5,204.9,63.5z
				"/>
			<path fill="#FFFFFF" d="M209.9,71.2c0.8-0.4,1.7-0.6,2.6-0.6c1.8,0,3.6,0.9,4.5,2.4l2.4,3.8h1.4c0.5-0.1,1-0.2,1.5-0.2
				c0.5,0,1.1,0.1,1.6,0.2h0.1c0.3-0.3,0.7-0.6,1.1-0.8c0.8-0.4,1.7-0.6,2.6-0.6c0.4,0,0.7,0,1.1,0.1c0.4-0.4,0.8-0.7,1.3-1
				c0.8-0.4,1.7-0.6,2.5-0.6c0.5-0.8,0.8-1.7,0.8-2.7V59.3c0-3.1-2.7-5.6-6.1-5.6h-39.8c-3.4,0-6.1,2.5-6.1,5.6v11.9
				c0,3.1,2.7,5.6,6.1,5.6h20.1c-0.3-0.9-0.3-1.8-0.1-2.7C207.8,72.9,208.7,71.8,209.9,71.2z M221.4,59.5h0.4v2.4h2.1
				c0,0.2,0.1,0.3,0.1,0.4c0,0.1,0,0.3,0,0.4c0,0.1,0,0.3,0,0.4c0,0.1,0,0.3-0.1,0.5h-2.1v3.2c0,0.3,0,0.6,0.1,0.8
				c0.1,0.2,0.1,0.4,0.3,0.5c0.1,0.1,0.2,0.2,0.4,0.2c0.2,0,0.4,0.1,0.6,0.1c0.2,0,0.3,0,0.5,0c0.2,0,0.3,0,0.4-0.1
				c0.1,0.2,0.1,0.4,0.2,0.6c0,0.2,0.1,0.4,0.1,0.6c0,0.1,0,0.2,0,0.3c0,0.1,0,0.2,0,0.2c-0.5,0.1-1.1,0.2-1.7,0.2
				c-1.1,0-1.9-0.2-2.4-0.7c-0.6-0.5-0.8-1.2-0.8-2.2v-3.7h-1.1l-0.1-0.3L221.4,59.5z M210.8,69c0.1-0.3,0.2-0.6,0.3-0.9
				c0.4,0.1,0.7,0.2,1.1,0.3c0.3,0.1,0.7,0.1,1.1,0.1c0.2,0,0.3,0,0.5,0c0.2,0,0.4-0.1,0.5-0.1c0.2-0.1,0.3-0.2,0.4-0.3
				c0.1-0.1,0.2-0.3,0.2-0.4c0-0.3-0.1-0.4-0.3-0.5c-0.2-0.1-0.4-0.2-0.7-0.3l-1.1-0.3c-0.6-0.2-1.2-0.4-1.5-0.8
				c-0.4-0.3-0.5-0.8-0.5-1.5c0-0.8,0.3-1.4,0.9-1.9c0.6-0.5,1.5-0.7,2.6-0.7c0.5,0,0.9,0,1.3,0.1c0.4,0.1,0.9,0.2,1.3,0.3
				c0,0.3-0.1,0.6-0.2,0.9c-0.1,0.3-0.2,0.6-0.3,0.8c-0.3-0.1-0.6-0.2-0.9-0.3c-0.3-0.1-0.7-0.1-1.1-0.1c-0.4,0-0.7,0.1-0.9,0.2
				c-0.2,0.1-0.3,0.3-0.3,0.5c0,0.2,0.1,0.4,0.2,0.5c0.2,0.1,0.4,0.2,0.7,0.3l1,0.3c0.3,0.1,0.6,0.2,0.9,0.3
				c0.3,0.1,0.5,0.3,0.7,0.5c0.2,0.2,0.3,0.4,0.4,0.7c0.1,0.3,0.2,0.6,0.2,1c0,0.4-0.1,0.8-0.3,1.1c-0.2,0.3-0.4,0.6-0.8,0.9
				c-0.3,0.2-0.8,0.4-1.2,0.6c-0.5,0.1-1,0.2-1.6,0.2c-0.3,0-0.5,0-0.8,0c-0.2,0-0.5,0-0.7-0.1c-0.2,0-0.4-0.1-0.6-0.1
				c-0.2-0.1-0.4-0.1-0.7-0.2C210.7,69.6,210.7,69.3,210.8,69z M199.1,64.5c-0.3,0.5-0.7,0.9-1.2,1.2c-0.5,0.3-1,0.5-1.6,0.6
				c-0.6,0.1-1.2,0.2-1.7,0.2c-0.1,0-0.3,0-0.4,0c-0.1,0-0.3,0-0.4,0v3.7c-0.2,0-0.4,0.1-0.6,0.1c-0.2,0-0.4,0-0.6,0
				c-0.2,0-0.4,0-0.6,0c-0.2,0-0.4,0-0.7-0.1V58.6c0.5,0,1.1-0.1,1.6-0.1c0.5,0,1.1,0,1.6,0c0.6,0,1.2,0.1,1.8,0.2
				c0.6,0.1,1.1,0.3,1.6,0.6c0.5,0.3,0.9,0.7,1.2,1.2c0.3,0.5,0.5,1.2,0.5,2C199.5,63.3,199.4,64,199.1,64.5z M206.8,70
				c-0.5,0.2-1.2,0.3-1.9,0.3c-0.7,0-1.4-0.1-1.9-0.3c-0.5-0.2-1-0.5-1.3-0.9c-0.4-0.4-0.6-0.8-0.8-1.4c-0.2-0.5-0.3-1.1-0.3-1.7
				c0-0.6,0.1-1.2,0.3-1.7c0.2-0.5,0.4-1,0.8-1.4c0.4-0.4,0.8-0.7,1.3-0.9c0.5-0.2,1.2-0.3,1.9-0.3c0.7,0,1.4,0.1,1.9,0.3
				c0.5,0.2,1,0.5,1.4,0.9c0.4,0.4,0.6,0.8,0.8,1.4c0.2,0.5,0.3,1.1,0.3,1.7c0,0.6-0.1,1.2-0.3,1.7c-0.2,0.5-0.4,1-0.8,1.4
				C207.8,69.5,207.4,69.8,206.8,70z"/>
			<path fill="#FFFFFF" d="M254.4,103.3l-4.8-7.6c-0.1-0.2-0.4-0.3-0.6-0.2l-0.1,0l-1.8-2.8c-0.3-0.4-0.9-0.6-1.3-0.3l-1.8,1
				c-1-1.5-1.7-2.7-1.9-3.3c-0.1-0.3-0.2-1-0.3-1.6c-0.1-0.7-0.2-1.3-0.4-1.7c-1-2.6-5.8-9.3-6-9.5c-0.8-1.3-2.8-1.8-4.3-1
				c-0.8,0.4-1.4,1-1.6,1.7c-1-0.7-2.4-0.8-3.4-0.2c-0.8,0.4-1.3,1.1-1.5,1.8c-0.9-1-2.6-1.2-3.9-0.6c-0.7,0.4-1.2,1-1.4,1.7
				l-4.2-6.6c-0.8-1.3-2.8-1.8-4.3-1c-0.7,0.4-1.2,1-1.5,1.7c-0.2,0.7-0.1,1.5,0.3,2.2l6.6,10.4c0,0.1,0,0.2,0,0.3l-0.2,5.6
				c0,1.1,0.5,2.2,1.5,2.9l0.3,0.2c0.2,0.2,5.4,4,7.4,5c0.4,0.2,0.8,0.4,1.2,0.5c0.2,0.1,0.4,0.2,0.7,0.3c0.1,0.1,0.3,0.1,0.4,0.2
				l-0.1,0c-0.2,0.1-0.4,0.3-0.5,0.5c-0.1,0.2,0,0.5,0.1,0.7l1.9,2.9c0,0,0,0,0,0c0,0.1,0,0.2,0,0.3l4.8,7.6
				c0.1,0.1,0.2,0.2,0.4,0.2c0.1,0,0.2,0,0.2-0.1l19.9-10.5C254.5,103.8,254.6,103.5,254.4,103.3z M230.3,104.9l-1.1-1.7l16.7-8.8
				l1,1.7L230.3,104.9z"/>
		</g>
		<defs>
			<filter id="Adobe_OpacityMaskFilter" filterUnits="userSpaceOnUse" x="181.3" y="114.5" width="73.2" height="60.9">
				<feColorMatrix  type="matrix" values="1 0 0 0 0  0 1 0 0 0  0 0 1 0 0  0 0 0 1 0"/>
			</filter>
		</defs>
		<mask maskUnits="userSpaceOnUse" x="181.3" y="114.5" width="73.2" height="60.9" id="SVGID_1_" display="inline">
			<g filter="url(#Adobe_OpacityMaskFilter)">
				<linearGradient id="SVGID_2_" gradientUnits="userSpaceOnUse" x1="217.663" y1="148.8858" x2="217.663" y2="114.4996">
					<stop  offset="0" style="stop-color:#000000"/>
					<stop  offset="0.1205" style="stop-color:#040404"/>
					<stop  offset="0.2454" style="stop-color:#111111"/>
					<stop  offset="0.3724" style="stop-color:#252525"/>
					<stop  offset="0.5008" style="stop-color:#434343"/>
					<stop  offset="0.6304" style="stop-color:#686868"/>
					<stop  offset="0.761" style="stop-color:#969696"/>
					<stop  offset="0.8898" style="stop-color:#CBCBCB"/>
					<stop  offset="1" style="stop-color:#FFFFFF"/>
				</linearGradient>
				<rect x="162.7" y="114.5" fill="url(#SVGID_2_)" width="109.9" height="34.4"/>
			</g>
		</mask>
		<g display="inline" opacity="0.7" mask="url(#SVGID_1_)">
			<path fill="#FFFFFF" d="M196.2,168.1c-0.2,0.2-0.5,0.3-0.7,0.3c-0.3,0.1-0.6,0.1-0.9,0.1c-0.1,0-0.2,0-0.4,0c-0.1,0-0.3,0-0.5,0
				v-4.1c0.1,0,0.3,0,0.4,0c0.1,0,0.3,0,0.4,0c0.3,0,0.6,0,0.9,0.1c0.3,0.1,0.5,0.2,0.7,0.3c0.2,0.2,0.4,0.4,0.5,0.6
				c0.1,0.3,0.2,0.6,0.2,1c0,0.4-0.1,0.7-0.2,1C196.6,167.8,196.4,168,196.2,168.1z"/>
			<path fill="#FFFFFF" d="M204.9,165.5c-0.6,0-1.1-0.2-1.4-0.7c-0.3-0.4-0.4-1.1-0.4-1.9c0-0.8,0.1-1.5,0.4-1.9
				c0.3-0.4,0.7-0.7,1.4-0.7c0.6,0,1.1,0.2,1.4,0.7c0.3,0.4,0.4,1.1,0.4,1.9c0,0.8-0.1,1.5-0.4,1.9
				C206,165.3,205.6,165.5,204.9,165.5z"/>
			<path fill="#FFFFFF" d="M207.4,154.9c-0.3-0.9-0.2-1.8,0.1-2.7h-20.1c-3.4,0-6.1,2.5-6.1,5.6v11.9c0,3.1,2.7,5.6,6.1,5.6h39.8
				c3.4,0,6.1-2.5,6.1-5.6v-11.9c0-1-0.3-1.9-0.8-2.7c-0.9,0-1.8-0.2-2.5-0.6c-0.5-0.3-1-0.6-1.3-1c-0.3,0.1-0.7,0.1-1.1,0.1
				c-0.9,0-1.8-0.2-2.6-0.6c-0.4-0.2-0.8-0.5-1.1-0.8h-0.1c-0.5,0.1-1,0.2-1.6,0.2c-0.5,0-1-0.1-1.5-0.2h-1.4l-2.4,3.8
				c-0.9,1.5-2.6,2.4-4.5,2.4c-0.9,0-1.8-0.2-2.6-0.6C208.7,157.2,207.8,156.1,207.4,154.9z M218.2,165.7l0.1-0.3h1.1v-3.7
				c0-1,0.3-1.8,0.8-2.2c0.6-0.5,1.4-0.7,2.4-0.7c0.6,0,1.1,0.1,1.7,0.2c0,0.1,0,0.2,0,0.2c0,0.1,0,0.2,0,0.3c0,0.2,0,0.4-0.1,0.6
				c0,0.2-0.1,0.4-0.2,0.6c-0.1,0-0.3,0-0.4-0.1c-0.2,0-0.3,0-0.5,0c-0.2,0-0.4,0-0.6,0.1c-0.2,0-0.3,0.1-0.4,0.2
				c-0.1,0.1-0.2,0.3-0.3,0.5c-0.1,0.2-0.1,0.5-0.1,0.8v3.2h2.1c0,0.2,0.1,0.3,0.1,0.5c0,0.1,0,0.3,0,0.4c0,0.1,0,0.3,0,0.4
				c0,0.1,0,0.3-0.1,0.4h-2.1v2.4h-0.4L218.2,165.7z M210.7,159.1c0.2-0.1,0.5-0.2,0.7-0.2c0.2-0.1,0.4-0.1,0.6-0.1
				c0.2,0,0.4-0.1,0.7-0.1c0.2,0,0.5,0,0.8,0c0.6,0,1.2,0.1,1.6,0.2c0.5,0.1,0.9,0.3,1.2,0.6c0.3,0.2,0.6,0.5,0.8,0.9
				c0.2,0.3,0.3,0.7,0.3,1.1c0,0.4-0.1,0.7-0.2,1s-0.2,0.5-0.4,0.7c-0.2,0.2-0.4,0.3-0.7,0.5c-0.3,0.1-0.6,0.2-0.9,0.3l-1,0.3
				c-0.3,0.1-0.5,0.2-0.7,0.3c-0.2,0.1-0.2,0.3-0.2,0.5c0,0.2,0.1,0.4,0.3,0.5c0.2,0.1,0.5,0.2,0.9,0.2c0.4,0,0.7,0,1.1-0.1
				c0.3-0.1,0.6-0.2,0.9-0.3c0.1,0.2,0.2,0.5,0.3,0.8c0.1,0.3,0.1,0.6,0.2,0.9c-0.5,0.1-0.9,0.3-1.3,0.3c-0.4,0.1-0.9,0.1-1.3,0.1
				c-1.1,0-1.9-0.2-2.6-0.7c-0.6-0.5-0.9-1.1-0.9-1.9c0-0.7,0.2-1.2,0.5-1.5c0.4-0.3,0.9-0.6,1.5-0.8l1.1-0.3
				c0.3-0.1,0.5-0.2,0.7-0.3c0.2-0.1,0.3-0.3,0.3-0.5c0-0.2-0.1-0.3-0.2-0.4c-0.1-0.1-0.2-0.2-0.4-0.3c-0.2-0.1-0.3-0.1-0.5-0.1
				c-0.2,0-0.4,0-0.5,0c-0.4,0-0.7,0-1.1,0.1c-0.3,0.1-0.7,0.2-1.1,0.3c-0.1-0.3-0.3-0.6-0.3-0.9
				C210.7,159.7,210.7,159.4,210.7,159.1z M199.5,166.5c0,0.8-0.1,1.5-0.5,2c-0.3,0.5-0.7,0.9-1.2,1.2c-0.5,0.3-1,0.5-1.6,0.6
				c-0.6,0.1-1.2,0.2-1.8,0.2c-0.6,0-1.1,0-1.6,0c-0.5,0-1.1-0.1-1.6-0.1v-11.5c0.2,0,0.5-0.1,0.7-0.1s0.4,0,0.6,0
				c0.2,0,0.4,0,0.6,0c0.2,0,0.4,0,0.6,0.1v3.7c0.1,0,0.2,0,0.4,0c0.1,0,0.3,0,0.4,0c0.6,0,1.1,0.1,1.7,0.2c0.6,0.1,1.1,0.3,1.6,0.6
				c0.5,0.3,0.9,0.7,1.2,1.2C199.4,165,199.5,165.7,199.5,166.5z M208.2,159.9c0.4,0.4,0.6,0.8,0.8,1.4c0.2,0.5,0.3,1.1,0.3,1.7
				c0,0.6-0.1,1.2-0.3,1.7c-0.2,0.5-0.4,1-0.8,1.4c-0.4,0.4-0.8,0.7-1.4,0.9c-0.5,0.2-1.2,0.3-1.9,0.3c-0.7,0-1.4-0.1-1.9-0.3
				c-0.5-0.2-1-0.5-1.3-0.9c-0.4-0.4-0.6-0.8-0.8-1.4c-0.2-0.5-0.3-1.1-0.3-1.7c0-0.6,0.1-1.2,0.3-1.7c0.2-0.5,0.4-1,0.8-1.4
				c0.4-0.4,0.8-0.7,1.3-0.9c0.5-0.2,1.2-0.3,1.9-0.3c0.7,0,1.4,0.1,1.9,0.3C207.4,159.2,207.8,159.5,208.2,159.9z"/>
			<path fill="#FFFFFF" d="M254.3,125.1l-19.9-10.5c-0.1,0-0.2-0.1-0.2-0.1c-0.2,0-0.3,0.1-0.4,0.2l-4.8,7.6c-0.1,0.1-0.1,0.2,0,0.3
				c0,0,0,0,0,0l-1.9,2.9c-0.1,0.2-0.2,0.4-0.1,0.7c0.1,0.2,0.2,0.4,0.5,0.5l0.1,0c-0.1,0.1-0.3,0.1-0.4,0.2
				c-0.2,0.1-0.4,0.2-0.7,0.3c-0.4,0.1-0.8,0.3-1.2,0.5c-2,1-7.2,4.9-7.4,5l-0.3,0.2c-1,0.7-1.6,1.7-1.5,2.9l0.2,5.6
				c0,0.1,0,0.2,0,0.3l-6.6,10.4c-0.4,0.7-0.5,1.4-0.3,2.2c0.2,0.7,0.7,1.4,1.5,1.7c1.4,0.8,3.4,0.3,4.3-1l4.2-6.6
				c0.2,0.7,0.7,1.3,1.4,1.7c1.3,0.7,2.9,0.4,3.9-0.6c0.2,0.7,0.7,1.4,1.5,1.8c1.1,0.6,2.5,0.5,3.4-0.2c0.2,0.7,0.8,1.3,1.6,1.7
				c1.4,0.8,3.4,0.3,4.3-1c0.2-0.3,5-7,6-9.5c0.2-0.4,0.3-1.1,0.4-1.7c0.1-0.6,0.2-1.2,0.3-1.6c0.3-0.7,0.9-1.8,1.9-3.3l1.8,1
				c0.4,0.2,1.1,0.1,1.3-0.3l1.8-2.8l0.1,0c0.2,0.1,0.5,0,0.6-0.2l4.8-7.6C254.6,125.5,254.5,125.2,254.3,125.1z M247,132.9l-1,1.7
				l-16.7-8.8l1.1-1.7L247,132.9z"/>
		</g>
	</g>
</g>
<g id="Image" display="none">
	<g display="inline">
		<g>
			<g>
				<path fill="#FFFFFF" d="M233.5,72.9h-31c-2.9,0-5.3,2.1-5.3,4.8v27.7c0,2.6,2.4,4.8,5.3,4.8h31c2.9,0,5.3-2.1,5.3-4.8V77.7
					C238.8,75.1,236.4,72.9,233.5,72.9z M236.3,105.4c0,1.4-1.3,2.6-2.9,2.6h-31c-1.6,0-2.9-1.2-2.9-2.6v-4l8.1-6.1
					c0.3-0.2,0.7-0.2,1,0l5.1,3.8c0.5,0.4,1.2,0.3,1.7-0.1l12-10.8c0.2-0.2,0.5-0.2,0.6-0.2c0.1,0,0.4,0,0.6,0.3l7.8,8.5
					L236.3,105.4L236.3,105.4z M236.3,93.3l-5.8-6.4c-0.6-0.6-1.4-1-2.4-1.1c-0.9,0-1.8,0.3-2.5,0.8l-11.2,10.1l-4.2-3.1
					c-1.2-0.9-3-0.9-4.2,0l-6.5,4.9V77.7c0-1.4,1.3-2.6,2.9-2.6h31c1.6,0,2.9,1.2,2.9,2.6V93.3z"/>
			</g>
		</g>
		<g>
			<g>
				<path fill="#FFFFFF" d="M210.2,77.5c-3.3,0-5.9,2.4-5.9,5.3c0,2.9,2.7,5.3,5.9,5.3c3.3,0,5.9-2.4,5.9-5.3
					C216.1,79.9,213.5,77.5,210.2,77.5z M210.2,85.9c-1.9,0-3.5-1.4-3.5-3.1c0-1.7,1.6-3.1,3.5-3.1s3.5,1.4,3.5,3.1
					C213.7,84.5,212.1,85.9,210.2,85.9z"/>
			</g>
		</g>
	</g>
	<g display="inline">
		<g id="youtube_1_">
			<g>
				<path fill="#FFFFFF" d="M-62.8-46.6h-26.8c-4.9,0-8.9,4-8.9,8.8V-23c0,4.9,4,8.8,8.9,8.8h26.8c4.9,0,8.9-4,8.9-8.8v-14.7
					C-53.8-42.6-57.9-46.6-62.8-46.6z M-55.8-23c0,3.8-3.1,6.9-7,6.9h-26.8c-3.8,0-7-3.1-7-6.9v-14.7c0-3.8,3.1-6.9,7-6.9h26.8
					c3.8,0,7,3.1,7,6.9V-23z M-82.6-22.1l14.6-8.3l-14.6-8.3V-22.1z M-80.7-35.3l8.6,4.9l-8.6,4.9V-35.3z"/>
			</g>
		</g>
	</g>
	<g display="inline">
		<path fill="#FFFFFF" d="M-75.5,20.4c-2.9-2.9-7.7-2.9-10.6,0l-5.3,5.2c-0.4,0.4-0.4,1.2,0,1.6s1.2,0.4,1.6,0l5.3-5.2
			c1-1,2.3-1.5,3.7-1.5c1.4,0,2.7,0.5,3.7,1.5c1,1,1.5,2.2,1.5,3.6c0,1.4-0.5,2.6-1.5,3.6l-6.9,6.8c-2,2-5.3,2-7.3,0
			c-0.4-0.4-1.2-0.4-1.6,0c-0.4,0.4-0.4,1.2,0,1.6c1.5,1.4,3.4,2.2,5.3,2.2c1.9,0,3.8-0.7,5.3-2.2l6.9-6.8c1.4-1.4,2.2-3.2,2.2-5.2
			C-73.4,23.6-74.1,21.7-75.5,20.4z"/>
		<path fill="#FFFFFF" d="M-89.4,41.2l-4.5,4.4c-1,1-2.3,1.5-3.7,1.5c-1.4,0-2.7-0.5-3.7-1.5c-2-2-2-5.2,0-7.2l6.5-6.4
			c1-1,2.3-1.5,3.7-1.5c1.4,0,2.7,0.5,3.7,1.5c0.4,0.4,1.2,0.4,1.6,0c0.4-0.4,0.4-1.2,0-1.6c-2.9-2.9-7.7-2.9-10.6,0l-6.5,6.4
			c-1.4,1.4-2.2,3.2-2.2,5.2c0,2,0.8,3.8,2.2,5.2c1.4,1.4,3.3,2.1,5.3,2.1c2,0,3.9-0.8,5.3-2.1l4.5-4.4c0.4-0.4,0.4-1.2,0-1.6
			S-88.9,40.7-89.4,41.2z"/>
	</g>
	<g display="inline">
		<path fill="#FFFFFF" d="M-76.8,153.7c-2.1,0-4,1-5.2,2.6l-10.1-5.7c0.2-0.7,0.4-1.4,0.4-2.2c0-0.8-0.1-1.5-0.4-2.2l10.1-5.7
			c1.2,1.6,3.1,2.6,5.2,2.6c3.6,0,6.6-3,6.6-6.6c0-3.6-3-6.6-6.6-6.6s-6.6,3-6.6,6.6c0,0.8,0.1,1.5,0.4,2.2l-10.1,5.7
			c-1.2-1.6-3.1-2.6-5.2-2.6c-3.6,0-6.6,3-6.6,6.6s3,6.6,6.6,6.6c2.1,0,4-1,5.2-2.6l10.1,5.7c-0.2,0.7-0.4,1.4-0.4,2.2
			c0,3.6,3,6.6,6.6,6.6s6.6-3,6.6-6.6S-73.1,153.7-76.8,153.7z M-76.8,132c2.5,0,4.5,2,4.5,4.5s-2,4.5-4.5,4.5c-2.5,0-4.5-2-4.5-4.5
			S-79.3,132-76.8,132z M-98.4,153c-2.5,0-4.5-2-4.5-4.5s2-4.5,4.5-4.5c2.5,0,4.5,2,4.5,4.5S-95.9,153-98.4,153z M-76.8,164.8
			c-2.5,0-4.5-2-4.5-4.5s2-4.5,4.5-4.5c2.5,0,4.5,2,4.5,4.5S-74.3,164.8-76.8,164.8z"/>
	</g>
	<g display="inline">
		<g>
			<g>
				<path fill="#FFFFFF" d="M369,39.7h-31c-2.9,0-5.3,2.1-5.3,4.8v27.7c0,2.6,2.4,4.8,5.3,4.8h31c2.9,0,5.3-2.1,5.3-4.8V44.5
					C374.4,41.9,372,39.7,369,39.7z M371.9,72.2c0,1.4-1.3,2.6-2.9,2.6h-31c-1.6,0-2.9-1.2-2.9-2.6v-4l8.1-6.1c0.3-0.2,0.7-0.2,1,0
					l5.1,3.8c0.5,0.4,1.2,0.3,1.7-0.1L363,55c0.2-0.2,0.5-0.2,0.6-0.2c0.1,0,0.4,0,0.6,0.3l7.8,8.5L371.9,72.2L371.9,72.2z
					 M371.9,60.1l-5.8-6.4c-0.6-0.6-1.4-1-2.4-1.1c-0.9,0-1.8,0.3-2.5,0.8L350,63.5l-4.2-3.1c-1.2-0.9-3-0.9-4.2,0l-6.5,4.9V44.5
					c0-1.4,1.3-2.6,2.9-2.6h31c1.6,0,2.9,1.2,2.9,2.6V60.1z"/>
			</g>
		</g>
		<g>
			<g>
				<path fill="#FFFFFF" d="M345.8,44.3c-3.3,0-5.9,2.4-5.9,5.3c0,2.9,2.7,5.3,5.9,5.3c3.3,0,5.9-2.4,5.9-5.3S349.1,44.3,345.8,44.3
					z M345.8,52.7c-1.9,0-3.5-1.4-3.5-3.1c0-1.7,1.6-3.1,3.5-3.1c1.9,0,3.5,1.4,3.5,3.1C349.3,51.3,347.7,52.7,345.8,52.7z"/>
			</g>
		</g>
	</g>
	<g display="inline">
		<g>
			<g>
				<path fill="#FFFFFF" d="M369.1,156h-31c-2.9,0-5.3,2.1-5.3,4.8v27.7c0,2.6,2.4,4.8,5.3,4.8h31c2.9,0,5.3-2.1,5.3-4.8v-27.7
					C374.4,158.1,372.1,156,369.1,156z M372,188.5c0,1.4-1.3,2.6-2.9,2.6h-31c-1.6,0-2.9-1.2-2.9-2.6v-4l8.1-6.1
					c0.3-0.2,0.7-0.2,1,0l5.1,3.8c0.5,0.4,1.2,0.3,1.7-0.1l12-10.8c0.2-0.2,0.5-0.2,0.6-0.2c0.1,0,0.4,0,0.6,0.3l7.8,8.5L372,188.5
					L372,188.5z M372,176.3l-5.8-6.4c-0.6-0.6-1.4-1-2.4-1.1c-0.9,0-1.8,0.3-2.5,0.8l-11.2,10.1l-4.2-3.1c-1.2-0.9-3-0.9-4.2,0
					l-6.5,4.9v-20.8c0-1.4,1.3-2.6,2.9-2.6h31c1.6,0,2.9,1.2,2.9,2.6V176.3z"/>
			</g>
		</g>
		<g>
			<g>
				<path fill="#FFFFFF" d="M345.9,160.6c-3.3,0-5.9,2.4-5.9,5.3c0,2.9,2.7,5.3,5.9,5.3c3.3,0,5.9-2.4,5.9-5.3
					C351.8,162.9,349.1,160.6,345.9,160.6z M345.9,168.9c-1.9,0-3.5-1.4-3.5-3.1c0-1.7,1.6-3.1,3.5-3.1c1.9,0,3.5,1.4,3.5,3.1
					C349.3,167.6,347.8,168.9,345.9,168.9z"/>
			</g>
		</g>
	</g>
	<g display="inline">
		<g>
			<g>
				<path fill="#FFFFFF" d="M96.1,49.5h-31c-2.9,0-5.3,2.1-5.3,4.8v27.7c0,2.6,2.4,4.8,5.3,4.8h31c2.9,0,5.3-2.1,5.3-4.8V54.2
					C101.5,51.6,99.1,49.5,96.1,49.5z M99,81.9c0,1.4-1.3,2.6-2.9,2.6h-31c-1.6,0-2.9-1.2-2.9-2.6v-4l8.1-6.1c0.3-0.2,0.7-0.2,1,0
					l5.1,3.8c0.5,0.4,1.2,0.3,1.7-0.1l12-10.8c0.2-0.2,0.5-0.2,0.6-0.2c0.1,0,0.4,0,0.6,0.3l7.8,8.5L99,81.9L99,81.9z M99,69.8
					l-5.8-6.4c-0.6-0.6-1.4-1-2.4-1.1c-0.9,0-1.8,0.3-2.5,0.8L77.1,73.2l-4.2-3.1c-1.2-0.9-3-0.9-4.2,0l-6.5,4.9V54.2
					c0-1.4,1.3-2.6,2.9-2.6h31c1.6,0,2.9,1.2,2.9,2.6V69.8z"/>
			</g>
		</g>
		<g>
			<g>
				<path fill="#FFFFFF" d="M72.9,54c-3.3,0-5.9,2.4-5.9,5.3c0,2.9,2.7,5.3,5.9,5.3s5.9-2.4,5.9-5.3S76.1,54,72.9,54z M72.9,62.4
					c-1.9,0-3.5-1.4-3.5-3.1c0-1.7,1.6-3.1,3.5-3.1c1.9,0,3.5,1.4,3.5,3.1C76.3,61,74.8,62.4,72.9,62.4z"/>
			</g>
		</g>
	</g>
	<g display="inline">
		<g>
			<g>
				<path fill="#FFFFFF" d="M97,201h-31c-2.9,0-5.3,2.1-5.3,4.8v27.7c0,2.6,2.4,4.8,5.3,4.8h31c2.9,0,5.3-2.1,5.3-4.8v-27.7
					C102.3,203.1,99.9,201,97,201z M99.9,233.4c0,1.4-1.3,2.6-2.9,2.6h-31c-1.6,0-2.9-1.2-2.9-2.6v-4l8.1-6.1c0.3-0.2,0.7-0.2,1,0
					l5.1,3.8c0.5,0.4,1.2,0.3,1.7-0.1l12-10.8c0.2-0.2,0.5-0.2,0.6-0.2c0.1,0,0.4,0,0.6,0.3l7.8,8.5L99.9,233.4L99.9,233.4z
					 M99.9,221.3l-5.8-6.4c-0.6-0.6-1.4-1-2.4-1.1c-0.9,0-1.8,0.3-2.5,0.8L78,224.7l-4.2-3.1c-1.2-0.9-3-0.9-4.2,0l-6.5,4.9v-20.8
					c0-1.4,1.3-2.6,2.9-2.6h31c1.6,0,2.9,1.2,2.9,2.6V221.3z"/>
			</g>
		</g>
		<g>
			<g>
				<path fill="#FFFFFF" d="M73.7,205.5c-3.3,0-5.9,2.4-5.9,5.3c0,2.9,2.7,5.3,5.9,5.3s5.9-2.4,5.9-5.3
					C79.7,207.9,77,205.5,73.7,205.5z M73.7,213.9c-1.9,0-3.5-1.4-3.5-3.1c0-1.7,1.6-3.1,3.5-3.1c1.9,0,3.5,1.4,3.5,3.1
					S75.7,213.9,73.7,213.9z"/>
			</g>
		</g>
	</g>
</g>
<g id="color-image" display="none">
	<g>
		
			<rect x="190.6" y="69.3" display="inline" fill="#C3E1ED" stroke="#E7ECED" stroke-width="2" stroke-miterlimit="10" width="55.6" height="43.7"/>
		<circle display="inline" fill="#ED8A19" cx="205.5" cy="79.8" r="6.5"/>
		<polygon display="inline" fill="#1A9172" points="245.3,98.2 244.3,97.1 232.3,86.2 221.9,97.6 227.4,103 231.4,107 245.3,107 		
			"/>
		<polygon display="inline" fill="#1A9172" points="191.6,111 215.5,111 211.5,107 200.6,96.1 191.6,104 		"/>
		<rect x="191.6" y="107" display="inline" fill="#6B5B4B" width="53.6" height="5"/>
		<polygon display="inline" fill="#25AE88" points="227.4,103 216.5,92.1 199.6,107 231.4,107 		"/>
	</g>
	<g>
		
			<rect x="53.4" y="47" display="inline" fill="#C3E1ED" stroke="#E7ECED" stroke-width="2" stroke-miterlimit="10" width="55.6" height="43.7"/>
		<circle display="inline" fill="#ED8A19" cx="68.3" cy="57.5" r="6.5"/>
		<polygon display="inline" fill="#1A9172" points="108,75.9 107,74.8 95.1,63.9 84.6,75.3 90.1,80.8 94.1,84.8 108,84.8 		"/>
		<polygon display="inline" fill="#1A9172" points="54.3,88.7 78.2,88.7 74.2,84.7 63.3,73.8 54.3,81.7 		"/>
		<rect x="54.3" y="84.8" display="inline" fill="#6B5B4B" width="53.6" height="5"/>
		<polygon display="inline" fill="#25AE88" points="90.1,80.8 79.2,69.9 62.3,84.8 94.1,84.8 		"/>
	</g>
	<g>
		
			<rect x="325.8" y="37.5" display="inline" fill="#C3E1ED" stroke="#E7ECED" stroke-width="2" stroke-miterlimit="10" width="55.6" height="43.7"/>
		<circle display="inline" fill="#ED8A19" cx="340.7" cy="48" r="6.5"/>
		<polygon display="inline" fill="#1A9172" points="380.4,66.4 379.4,65.3 367.5,54.4 357.1,65.8 362.5,71.2 366.5,75.2 380.4,75.2 
					"/>
		<polygon display="inline" fill="#1A9172" points="326.8,79.2 350.6,79.2 346.6,75.2 335.7,64.3 326.8,72.2 		"/>
		<rect x="326.8" y="75.2" display="inline" fill="#6B5B4B" width="53.6" height="5"/>
		<polygon display="inline" fill="#25AE88" points="362.5,71.2 351.6,60.3 334.7,75.2 366.5,75.2 		"/>
	</g>
	<g display="inline">
		<path fill="#FFFFFF" d="M334.9,158.5v30.3h37.3v-30.3H334.9z M369.9,186.5h-32.7v-25.7h32.7V186.5z M360.5,166.6
			c0,1.9,1.6,3.5,3.5,3.5s3.5-1.6,3.5-3.5c0-1.9-1.6-3.5-3.5-3.5S360.5,164.7,360.5,166.6z M367.5,184.1h-28l7-18.7l9.3,11.7
			l4.7-3.5L367.5,184.1z"/>
	</g>
	<g display="inline">
		<path fill="#FFFFFF" d="M60,203.6v33.7h41.5v-33.7H60z M98.9,234.7H62.6v-28.5h36.3V234.7z M88.5,212.7c0,2.1,1.7,3.9,3.9,3.9
			c2.1,0,3.9-1.7,3.9-3.9s-1.7-3.9-3.9-3.9C90.3,208.8,88.5,210.5,88.5,212.7z M96.3,232.1H65.2l7.8-20.7l10.4,13l5.2-3.9
			L96.3,232.1z"/>
	</g>
	<g display="inline">
		<path fill="#FFFFFF" d="M191.8,70v41.6H243V70H191.8z M239.8,108.4H195V73.2h44.8V108.4z M227,81.2c0,2.7,2.1,4.8,4.8,4.8
			s4.8-2.1,4.8-4.8s-2.1-4.8-4.8-4.8S227,78.5,227,81.2z M236.6,105.2h-38.4l9.6-25.6l12.8,16l6.4-4.8L236.6,105.2z"/>
	</g>
	<g display="inline">
		<path fill="#FFFFFF" d="M59,53.8v33.7h41.5V53.8H59z M97.9,84.9H61.6V56.4h36.3V84.9z M87.5,62.9c0,2.1,1.7,3.9,3.9,3.9
			c2.1,0,3.9-1.7,3.9-3.9c0-2.1-1.7-3.9-3.9-3.9C89.3,59,87.5,60.7,87.5,62.9z M95.3,82.3H64.2L72,61.6l10.4,13l5.2-3.9L95.3,82.3z"
			/>
	</g>
	<g display="inline">
		<path fill="#FFFFFF" d="M334.9,42.9v30.3h37.3V42.9H334.9z M369.9,70.9h-32.7V45.2h32.7V70.9z M360.6,51.1c0,1.9,1.6,3.5,3.5,3.5
			s3.5-1.6,3.5-3.5c0-1.9-1.6-3.5-3.5-3.5S360.6,49.1,360.6,51.1z M367.6,68.6h-28l7-18.7l9.3,11.7l4.7-3.5L367.6,68.6z"/>
	</g>
</g>
<g id="Images">
</g>
</svg>
