<?xml version="1.0" encoding="utf-8"?>
<!-- Generator: Adobe Illustrator 17.1.0, SVG Export Plug-In . SVG Version: 6.00 Build 0)  -->
<!DOCTYPE svg PUBLIC "-//W3C//DTD SVG 1.1//EN" "http://www.w3.org/Graphics/SVG/1.1/DTD/svg11.dtd">
<svg version="1.1" id="Images" xmlns="http://www.w3.org/2000/svg" xmlns:xlink="http://www.w3.org/1999/xlink" x="0px" y="0px"
	 viewBox="5.7 4.7 420 230.7" enable-background="new 5.7 4.7 420 230.7" xml:space="preserve">
<rect x="13.7" y="13.1" fill="#D8E1E5" width="190" height="140.9"/>
<rect x="227" y="13.1" fill="#D8E1E5" width="190" height="140.9"/>
<rect x="13.7" y="13.1" fill="#78A7BA" width="190" height="117.9"/>
<rect x="227" y="13.1" fill="#78A7BA" width="190" height="117.9"/>
<rect x="13.7" y="175.2" fill="#78A7BA" width="190" height="64.8"/>
<rect x="227" y="175.2" fill="#78A7BA" width="190" height="64.8"/>
<g>
	<rect x="269.6" y="70.6" fill="#FFFFFF" width="106.4" height="3.9"/>
	<rect x="300.6" y="84.1" fill="#FFFFFF" width="42" height="3.9"/>
	<rect x="290" y="57.6" fill="#FFFFFF" width="64.7" height="3.9"/>
</g>
<g>
	<rect x="55.9" y="70.3" fill="#FFFFFF" width="106.4" height="3.9"/>
	<rect x="86.9" y="83.8" fill="#FFFFFF" width="42" height="3.9"/>
	<rect x="76.3" y="57.3" fill="#FFFFFF" width="64.7" height="3.9"/>
</g>
<g>
	<rect x="268.4" y="227.3" fill="#FFFFFF" width="106.4" height="3.9"/>
	<rect x="288.7" y="214.3" fill="#FFFFFF" width="64.7" height="3.9"/>
</g>
<g>
	<rect x="55.6" y="227" fill="#FFFFFF" width="106.4" height="3.9"/>
	<rect x="76" y="214" fill="#FFFFFF" width="64.7" height="3.9"/>
</g>
</svg>
