<?xml version="1.0" encoding="utf-8"?>
<!-- Generator: Adobe Illustrator 17.1.0, SVG Export Plug-In . SVG Version: 6.00 Build 0)  -->
<!DOCTYPE svg PUBLIC "-//W3C//DTD SVG 1.1//EN" "http://www.w3.org/Graphics/SVG/1.1/DTD/svg11.dtd">
<svg version="1.1" xmlns="http://www.w3.org/2000/svg" xmlns:xlink="http://www.w3.org/1999/xlink" x="0px" y="0px"
	 viewBox="5.7 4.7 420 230.7" enable-background="new 5.7 4.7 420 230.7" xml:space="preserve">
<g id="Layer_1" xmlns:sketch="http://www.bohemiancoding.com/sketch/ns">
	<rect x="291.7" y="167.3" fill="#E2E2E2" width="125.9" height="76.6"/>
	<rect x="291.6" y="18.2" fill="#E2E2E2" width="125.9" height="136.1"/>
	<rect x="153.3" y="18.2" fill="#E2E2E2" width="125.9" height="97.3"/>
	<title>Responsive DesignI</title>
	<desc>Created with Sketch.</desc>
	<g>
		<rect x="14.7" y="18.2" fill="#E2E2E2" width="125.9" height="181.1"/>
		<g>
			<rect id="Rectangle-686-Copy-10_2_" x="23.9" y="28.5" sketch:type="MSShapeGroup" fill="#30A3C6" width="107.2" height="125.7">
			</rect>
		</g>
		<rect x="24" y="168.4" fill="#AAAAAA" width="107.2" height="3.9"/>
		<rect x="24" y="182.9" fill="#AAAAAA" width="89.4" height="3.9"/>
	</g>
	<g>
		<rect x="153.3" y="129" fill="#E2E2E2" width="125.9" height="117.9"/>
		<g>
			
				<rect id="Rectangle-686-Copy-10_3_" x="162.6" y="140.2" sketch:type="MSShapeGroup" fill="#E2A674" width="107.2" height="68.8">
			</rect>
		</g>
		<rect x="162.6" y="220.7" fill="#AAAAAA" width="107.2" height="3.9"/>
	</g>
	<g>
		<g>
			<rect id="Rectangle-686-Copy-10_4_" x="162.6" y="28.3" sketch:type="MSShapeGroup" fill="#8B7FBF" width="107.2" height="60">
			</rect>
		</g>
		<rect x="162.7" y="99.8" fill="#AAAAAA" width="107.2" height="3.9"/>
	</g>
	<g>
		<g>
			<path fill="#FFFFFF" d="M229.8,161.2c-3.7-3.6-8.5-5.6-13.7-5.6s-10,2-13.7,5.6c-7,7-7.6,18.2-1.3,25.8c-0.9,1.8-1.9,2.9-3,3.5
				c-0.7,0.3-1.1,1.1-1,1.9c0.1,0.8,0.7,1.4,1.5,1.5c0.4,0.1,0.9,0.1,1.4,0.1l0,0c2.4,0,4.9-0.8,6.9-2.2c2.8,1.5,5.9,2.3,9.2,2.3
				c5.2,0,10-2,13.7-5.6c3.7-3.6,5.7-8.5,5.7-13.6C235.5,169.7,233.5,164.8,229.8,161.2z M228.3,186.8c-3.2,3.2-7.5,5-12.1,5
				c-3.1,0-6.1-0.8-8.7-2.3c-0.2-0.1-0.4-0.2-0.6-0.2c-0.2,0-0.5,0.1-0.7,0.2c-2.5,1.9-5,2.2-6.1,2.2c1.3-1,2.4-2.5,3.3-4.5
				c0.2-0.4,0.1-0.8-0.2-1.2c-6-6.7-5.7-17,0.7-23.3c3.2-3.2,7.5-5,12.1-5s8.9,1.8,12.1,5C235,169.4,235,180.2,228.3,186.8z"/>
			<path fill="#FFFFFF" d="M224.3,168.4h-16.2c-0.6,0-1.1,0.5-1.1,1.1c0,0.6,0.5,1.1,1.1,1.1h16.2c0.6,0,1.1-0.5,1.1-1.1
				C225.4,168.9,224.9,168.4,224.3,168.4z"/>
			<path fill="#FFFFFF" d="M224.3,173.7h-16.2c-0.6,0-1.1,0.5-1.1,1.1c0,0.6,0.5,1.1,1.1,1.1h16.2c0.6,0,1.1-0.5,1.1-1.1
				C225.4,174.2,224.9,173.7,224.3,173.7z"/>
			<path fill="#FFFFFF" d="M224.3,178.9h-16.2c-0.6,0-1.1,0.5-1.1,1.1c0,0.6,0.5,1.1,1.1,1.1h16.2c0.6,0,1.1-0.5,1.1-1.1
				C225.4,179.4,224.9,178.9,224.3,178.9z"/>
		</g>
	</g>
	<g>
		<rect id="Rectangle-686-Copy-10_5_" x="300.9" y="28.5" sketch:type="MSShapeGroup" fill="#E56565" width="107.2" height="84.8">
		</rect>
	</g>
	<rect x="301.8" y="126" fill="#AAAAAA" width="107.2" height="3.9"/>
	<rect x="301.8" y="138.5" fill="#AAAAAA" width="89.4" height="3.9"/>
	<g>
		<g>
			
				<rect id="Rectangle-686-Copy-10_6_" x="301.8" y="178.4" sketch:type="MSShapeGroup" fill="#7A9E7D" width="107.2" height="65.5">
			</rect>
		</g>
	</g>
	<g>
		<rect x="15.2" y="212.6" fill="#E2E2E2" width="125.9" height="58.6"/>
		<g>
			<rect id="Rectangle-686-Copy-10_7_" x="25" y="221.3" sketch:type="MSShapeGroup" fill="#C6C6C4" width="107.2" height="49.9">
			</rect>
		</g>
	</g>
</g>
<g id="Image">
	<g>
		<g>
			<g>
				<path fill="#FFFFFF" d="M93.6,73.2h-31c-2.9,0-5.3,2.1-5.3,4.8v27.7c0,2.6,2.4,4.8,5.3,4.8h31c2.9,0,5.3-2.1,5.3-4.8V78
					C99,75.3,96.6,73.2,93.6,73.2z M96.5,105.7c0,1.4-1.3,2.6-2.9,2.6h-31c-1.6,0-2.9-1.2-2.9-2.6v-4l8.1-6.1c0.3-0.2,0.7-0.2,1,0
					l5.1,3.8c0.5,0.4,1.2,0.3,1.7-0.1l12-10.8c0.2-0.2,0.5-0.2,0.6-0.2c0.1,0,0.4,0,0.6,0.3l7.8,8.5L96.5,105.7L96.5,105.7z
					 M96.5,93.6l-5.8-6.4c-0.6-0.6-1.4-1-2.4-1.1c-0.9,0-1.8,0.3-2.5,0.8L74.6,97l-4.2-3.1c-1.2-0.9-3-0.9-4.2,0l-6.5,4.9V78
					c0-1.4,1.3-2.6,2.9-2.6h31c1.6,0,2.9,1.2,2.9,2.6V93.6z"/>
			</g>
		</g>
		<g>
			<g>
				<path fill="#FFFFFF" d="M70.4,77.8c-3.3,0-5.9,2.4-5.9,5.3c0,2.9,2.7,5.3,5.9,5.3s5.9-2.4,5.9-5.3
					C76.3,80.2,73.7,77.8,70.4,77.8z M70.4,86.2c-1.9,0-3.5-1.4-3.5-3.1c0-1.7,1.6-3.1,3.5-3.1c1.9,0,3.5,1.4,3.5,3.1
					S72.3,86.2,70.4,86.2z"/>
			</g>
		</g>
	</g>
	<g>
		<g id="youtube_1_">
			<g>
				<path fill="#FFFFFF" d="M368.8,54.8H342c-4.9,0-8.9,4-8.9,8.8v14.7c0,4.9,4,8.8,8.9,8.8h26.8c4.9,0,8.9-4,8.9-8.8V63.6
					C377.8,58.8,373.7,54.8,368.8,54.8z M375.8,78.3c0,3.8-3.1,6.9-7,6.9H342c-3.8,0-7-3.1-7-6.9V63.6c0-3.8,3.1-6.9,7-6.9h26.8
					c3.8,0,7,3.1,7,6.9V78.3z M349,79.3l14.6-8.3L349,62.7V79.3z M350.9,66.1l8.6,4.9l-8.6,4.9V66.1z"/>
			</g>
		</g>
	</g>
	<g>
		<path fill="#FFFFFF" d="M230.3,45.2c-2.9-2.9-7.7-2.9-10.6,0l-5.3,5.2c-0.4,0.4-0.4,1.2,0,1.6s1.2,0.4,1.6,0l5.3-5.2
			c1-1,2.3-1.5,3.7-1.5c1.4,0,2.7,0.5,3.7,1.5s1.5,2.2,1.5,3.6c0,1.4-0.5,2.6-1.5,3.6l-6.9,6.8c-2,2-5.3,2-7.3,0
			c-0.4-0.4-1.2-0.4-1.6,0s-0.4,1.2,0,1.6c1.5,1.4,3.4,2.2,5.3,2.2c1.9,0,3.8-0.7,5.3-2.2l6.9-6.8c1.4-1.4,2.2-3.2,2.2-5.2
			C232.5,48.5,231.7,46.6,230.3,45.2z"/>
		<path fill="#FFFFFF" d="M216.5,66.1l-4.5,4.4c-1,1-2.3,1.5-3.7,1.5c-1.4,0-2.7-0.5-3.7-1.5c-2-2-2-5.2,0-7.2l6.5-6.4
			c1-1,2.3-1.5,3.7-1.5c1.4,0,2.7,0.5,3.7,1.5c0.4,0.4,1.2,0.4,1.6,0s0.4-1.2,0-1.6c-2.9-2.9-7.7-2.9-10.6,0l-6.5,6.4
			c-1.4,1.4-2.2,3.2-2.2,5.2c0,2,0.8,3.8,2.2,5.2c1.4,1.4,3.3,2.1,5.3,2.1c2,0,3.9-0.8,5.3-2.1l4.5-4.4c0.4-0.4,0.4-1.2,0-1.6
			S216.9,65.6,216.5,66.1z"/>
	</g>
	<g>
		<path fill="#FFFFFF" d="M366.9,216.5c-2.1,0-4,1-5.2,2.6l-10.1-5.7c0.2-0.7,0.4-1.4,0.4-2.2c0-0.8-0.1-1.5-0.4-2.2l10.1-5.7
			c1.2,1.6,3.1,2.6,5.2,2.6c3.6,0,6.6-3,6.6-6.6c0-3.6-3-6.6-6.6-6.6c-3.6,0-6.6,3-6.6,6.6c0,0.8,0.1,1.5,0.4,2.2l-10.1,5.7
			c-1.2-1.6-3.1-2.6-5.2-2.6c-3.6,0-6.6,3-6.6,6.6s3,6.6,6.6,6.6c2.1,0,4-1,5.2-2.6l10.1,5.7c-0.2,0.7-0.4,1.4-0.4,2.2
			c0,3.6,3,6.6,6.6,6.6s6.6-3,6.6-6.6S370.5,216.5,366.9,216.5z M366.9,194.9c2.5,0,4.5,2,4.5,4.5s-2,4.5-4.5,4.5s-4.5-2-4.5-4.5
			S364.4,194.9,366.9,194.9z M345.3,215.8c-2.5,0-4.5-2-4.5-4.5s2-4.5,4.5-4.5c2.5,0,4.5,2,4.5,4.5S347.8,215.8,345.3,215.8z
			 M366.9,227.6c-2.5,0-4.5-2-4.5-4.5s2-4.5,4.5-4.5s4.5,2,4.5,4.5S369.4,227.6,366.9,227.6z"/>
	</g>
</g>
</svg>
