<?xml version="1.0" encoding="utf-8"?>
<!DOCTYPE svg PUBLIC "-//W3C//DTD SVG 1.1//EN" "http://www.w3.org/Graphics/SVG/1.1/DTD/svg11.dtd">
<svg xmlns="http://www.w3.org/2000/svg"
     width="100%" height="100%"
     viewBox="0 0 1703 567.6">
	 
<g id="Background">
	<path id="flex_rectangle" fill="none" stroke="none" d="M677.5,511.1c0,18.2-14.8,33-33,33h-476c-18.2,0-33-14.8-33-33v-451c0-18.2,14.8-33,33-33
		h476c18.2,0,33,14.8,33,33V511.1z"/>
	<path id="flex_rectangle_fill" fill="none" stroke="#444" d="M677.5,511.1c0,18.2-14.8,33-33,33h-476c-18.2,0-33-14.8-33-33v-451c0-18.2,14.8-33,33-33
	h476c18.2,0,33,14.8,33,33V511.1z"/>
</g>

<g id="flex_logo">
	<linearGradient id="gradient_1" gradientUnits="userSpaceOnUse" x1="408.9635" y1="237.4535" x2="404.6931" y2="-7.3191" gradientTransform="matrix(8.579812e-04 1 -1 8.579812e-04 581.9316 -124.7311)">
		<stop  offset="0" style="stop-color:#FFFFFF;stop-opacity:0.7"/>
		<stop  offset="1" style="stop-color:#FFFFFF"/>
	</linearGradient>
	<polygon id="gradient" fill="url(#gradient_1)" points="527.3,316.8 280.7,317 279.9,316.3 311.4,249.3 527.2,249.2"/>
	
	<path id="logo_top" fill="none" stroke-width="4.5" stroke="#B2B2B2" d="M529.5,212.2l-251.8,0l0-71.4l251.8,0L529.5,212.2z M281.7"/>
	<path id="logo_main1" fill="none" stroke-width="4.5" stroke="#B2B2B2" d="M279.9,319l-2.4-2.2l32.6-69.4l219.1-0.2l0.1,71.7L279.9,319z M312.6,251.3L282.8"/>
	<path id="logo_main2" fill="none" stroke-width="14.5" stroke="#B2B2B2" d="M436.4,463.2L277.5,316.8l33.2-70.8l178.8,164.7L436.4,463.2z M282.4,315.8l153.9"/>
	
	<linearGradient id="gradient_2" gradientUnits="userSpaceOnUse" x1="322.2522" y1="344.1754" x2="560.4815" y2="344.1754" gradientTransform="matrix(0.7346 0.6785 -0.6785 0.7346 284.3563 -196.3653)">
		<stop  offset="0" style="stop-color:#FFFFFF"/>
		<stop  offset="1" style="stop-color:#FFFFFF;stop-opacity:0.8"/>
	</linearGradient>
	<polygon id="gradient" fill="url(#gradient_2)" points="436.3,460.5 280.7,317 279.9,316.3 311.4,249.3 384.8,316.9 486.6,410.7"/>
	<rect id="logo_top_bckg" x="279.7" y="142.8" fill="#FFFFFF" width="247.8" height="67.4"/>
</g>


<g id="flex">
	<path id="f_top" fill="none" stroke="#F14833" stroke-width="4.5" d="M950.8,201.5H760v-44.9h190.8V201.5z M760.3"/>
	<path id="f" fill="none" stroke-width="4.5" stroke="#B2B2B2" d="M760.4,281.2c0,0,0-41,0-41h189.4v40.7l-133.2-0.1c0,0,63.9,88.4,64,88.6
			c6.7,9.1,14.7,18.1,22.7,18.1c2.4,0,4.7-0.8,7-2.5c4.5-3.3,11.2-11,11.2-11l0.4-0.5l19.4,29.2l-0.3,0.3
			c-0.1,0.1-11.2,12.6-20.9,19.7c-8,5.9-16.6,8.8-25.6,8.8c-16,0-31.8-9.6-44.6-27l-89.8-123.7 M761.9,281.2"/>
<path id="l" fill="none" stroke="#B2B2B2" stroke-width="4.5" d="M993.6,377.7V156.9h40.8v209.4c0,15.1,6.8,22.7,20.4,22.7c5.7,0,11-1.1,15.5-3.8v35.2
	c-7.9,4.2-18.1,6-30.2,6C1013.3,426.5,993.6,412.9,993.6,377.7z"/>
<path id="e" fill="none" stroke="#B2B2B2" stroke-width="4.5" d="M1126.5,259c17.8-18.5,40.4-28,68.8-28c18.9,0,35.2,4.9,48.8,15.1
	c27.6,19.7,39.3,50.3,39.3,83.9v10.6h-142.1c4.9,31.4,32.1,49.9,69.9,49.9c21.5,0,41.2-5.7,59.7-16.6v34.4
	c-17,12.1-39.7,18.1-68.4,18.1c-28.7,0-52.9-9.1-73-27.2c-19.7-18.1-29.5-41.6-29.5-70.7C1100.1,301,1108.8,277.5,1126.5,259z
	 M1242.2,309.7c-0.4-11.3-4.5-21.5-13.2-30.6c-8.7-9.1-20.4-13.6-35.5-13.6c-29.9,0-49.1,20-51.8,44.2H1242.2z"/>
<path id="x" fill="none" stroke="#B2B2B2" stroke-width="4.5" d="M1354.4,236l43.8,57.5l44.2-57.5h46.5l-67.3,87.7l74.8,97.9h-47.2l-51.8-67.7l-51.8,67.7
	h-46.1l74.8-97.1l-67.3-88.5H1354.4z"/>						   
</g>	

<g id="flex_after">
	<path id="f_top" fill="none" stroke-width="4.5" stroke="#F14833" d="M950.8,201.5H760v-44.9h190.8V201.5z M760.3"/>
	<path fill="none" stroke-width="4.5" stroke="#B2B2B2" d="M760.4,281.2c0,0,0-41,0-41h189.4v40.7l-133.2-0.1c0,0,63.9,88.4,64,88.6
			c6.7,9.1,14.7,18.1,22.7,18.1c2.4,0,4.7-0.8,7-2.5c4.5-3.3,11.2-11,11.2-11l0.4-0.5l19.4,29.2l-0.3,0.3
			c-0.1,0.1-11.2,12.6-20.9,19.7c-8,5.9-16.6,8.8-25.6,8.8c-16,0-31.8-9.6-44.6-27l-89.8-123.7 M761.9,281.2"/>
<path fill="none" stroke="#B2B2B2" stroke-width="4.5" d="M993.6,377.7V156.9h40.8v209.4c0,15.1,6.8,22.7,20.4,22.7c5.7,0,11-1.1,15.5-3.8v35.2
	c-7.9,4.2-18.1,6-30.2,6C1013.3,426.5,993.6,412.9,993.6,377.7z"/>
<path fill="none" stroke="#B2B2B2" stroke-width="4.5" d="M1126.5,259c17.8-18.5,40.4-28,68.8-28c18.9,0,35.2,4.9,48.8,15.1
	c27.6,19.7,39.3,50.3,39.3,83.9v10.6h-142.1c4.9,31.4,32.1,49.9,69.9,49.9c21.5,0,41.2-5.7,59.7-16.6v34.4
	c-17,12.1-39.7,18.1-68.4,18.1c-28.7,0-52.9-9.1-73-27.2c-19.7-18.1-29.5-41.6-29.5-70.7C1100.1,301,1108.8,277.5,1126.5,259z
	 M1242.2,309.7c-0.4-11.3-4.5-21.5-13.2-30.6c-8.7-9.1-20.4-13.6-35.5-13.6c-29.9,0-49.1,20-51.8,44.2H1242.2z"/>
<path fill="none" stroke="#B2B2B2" stroke-width="4.5" d="M1354.4,236l43.8,57.5l44.2-57.5h46.5l-67.3,87.7l74.8,97.9h-47.2l-51.8-67.7l-51.8,67.7
	h-46.1l74.8-97.1l-67.3-88.5H1354.4z"/>						   
</g>	

</svg>

